<?xml version='1.0' encoding='utf-8'?>
<!DOCTYPE svg PUBLIC '-//W3C//DTD SVG 1.1//EN' 'http://www.w3.org/Graphics/SVG/1.1/DTD/svg11.dtd'>
<!-- Uploaded to: SVG Repo, www.svgrepo.com, Generator: SVG Repo Mixer Tools -->
<svg fill="#000000" height="800px" width="800px" version="1.1" xmlns="http://www.w3.org/2000/svg" viewBox="0 0 512 512" xmlns:xlink="http://www.w3.org/1999/xlink" enable-background="new 0 0 512 512">
  <g>
    <g>
      <path d="m458.5,93h-84.2v-28.2c0-11.3-9.1-20.4-20.4-20.4h-77.4v-13c0-11.3-9.1-20.4-20.4-20.4-11.3,0-20.4,9.1-20.4,20.4v13h-77.4c-11.3,0-20.4,9.1-20.4,20.4v28.2h-84.4c-11.3,0-20.4,9.1-20.4,20.4v339.7c0,26.4 21.5,47.9 47.9,47.9h350c26.4,0 47.9-21.5 47.9-47.9v-339.6c0-11.3-9.2-20.5-20.4-20.5zm-279.9-7.8h154.8v53.7h-154.8v-53.7zm259.5,367.9c0,3.9-3.2,7-7,7h-350.1c-3.9,0-7-3.2-7-7v-319.2h63.8v25.5c0,11.3 9.1,20.4 20.4,20.4h195.7c11.3,0 20.4-9.1 20.4-20.4v-25.5h63.8v319.2z"/>
      <path d="m308,255.3l-76.2,76.2-28.6-26c-8.4-7.6-21.3-7-28.8,1.4-7.6,8.3-7,21.3 1.4,28.8l43,39.1c3.9,3.5 8.8,5.3 13.7,5.3 5.2,0 10.5-2 14.4-6l89.9-89.9c8-8 8-20.9 0-28.9-7.9-8-20.8-8-28.8-2.84217e-14z"/>
    </g>
  </g>
</svg>